<svg width="40" height="40" viewBox="0 0 40 40" fill="none" xmlns="http://www.w3.org/2000/svg">
<g clip-path="url(#clip0_65_197)">
<path d="M3.3 3.3C0.500001 6.12667 0.5 10.6467 0.5 19.7V21.3C0.5 30.34 0.500001 34.86 3.3 37.7C6.12667 40.5 10.6467 40.5 19.7 40.5H21.3C30.34 40.5 34.86 40.5 37.7 37.7C40.5 34.8733 40.5 30.3533 40.5 21.3V19.7C40.5 10.66 40.5 6.14 37.7 3.3C34.8733 0.500001 30.3533 0.5 21.3 0.5H19.7C10.66 0.5 6.14 0.500001 3.3 3.3ZM7.24667 12.6733H11.8333C11.98 20.3 15.34 23.5267 18.0067 24.1933V12.6733H22.3133V19.2467C24.94 18.9667 27.7133 15.9667 28.6467 12.66H32.94C32.5897 14.3716 31.8903 15.9926 30.8855 17.4218C29.8807 18.851 28.592 20.0578 27.1 20.9667C28.7654 21.7953 30.2362 22.9676 31.4152 24.4064C32.5943 25.8451 33.4548 27.5176 33.94 29.3133H29.2067C28.1933 26.1533 25.66 23.7 22.3133 23.3667V29.3133H21.78C12.66 29.3133 7.46 23.0733 7.24667 12.6733Z" fill="white"/>
</g>
<defs>
<clipPath id="clip0_65_197">
<rect width="40" height="40" fill="white"/>
</clipPath>
</defs>
</svg>
