<svg width="45" height="45" viewBox="0 0 45 45" fill="none" xmlns="http://www.w3.org/2000/svg">
<path d="M3.14426 3.14426C4.76837e-07 6.31847 0 11.3942 0 21.5607V23.3574C0 33.5089 4.76837e-07 38.5846 3.14426 41.7738C6.31847 44.918 11.3942 44.918 21.5607 44.918H23.3574C33.5089 44.918 38.5846 44.918 41.7738 41.7738C44.918 38.5996 44.918 33.5238 44.918 23.3574V21.5607C44.918 11.4092 44.918 6.33344 41.7738 3.14426C38.5996 4.76837e-07 33.5238 0 23.3574 0H21.5607C11.4092 0 6.33344 4.76837e-07 3.14426 3.14426ZM7.57618 13.6701H12.7268C12.8915 22.2344 16.6646 25.8578 19.6591 26.6065V13.6701H24.4953V21.0516C27.4449 20.7372 30.5592 17.3683 31.6073 13.6551H36.4285C36.0351 15.5771 35.2498 17.3974 34.1214 19.0024C32.9931 20.6073 31.546 21.9624 29.8705 22.9831C31.7407 23.9135 33.3923 25.23 34.7163 26.8457C36.0403 28.4613 37.0066 30.3394 37.5515 32.356H32.2362C31.0983 28.8074 28.2534 26.0525 24.4953 25.6781V32.356H23.8964C13.6551 32.356 7.81574 25.3487 7.57618 13.6701Z" fill="#3BB0E3"/>
</svg>
